<?xml version="1.0" encoding="UTF-8"?>
<svg id="Layer_1" xmlns="http://www.w3.org/2000/svg" version="1.1" viewBox="0 0 2000 2000">
  <!-- Generator: Adobe Illustrator 30.0.0, SVG Export Plug-In . SVG Version: 2.1.1 Build 123)  -->
  <defs>
    <style>
      .st0 {
        fill: #fa7315;
      }
    </style>
  </defs>
  <path class="st0" d="M1407.89,972.18c113.14-123.15,172.16-245.59,118.26-325.79-53.9-80.21-189.55-71.8-346.31-13.55-4.04-12.89-8.25-25.45-12.64-37.68-3.86-10.81-7.87-21.33-12.01-31.55-12.03-29.83-25.17-57.15-39.34-81.3-4.54-7.72-9.19-15.13-13.93-22.19-40.98-60.98-89.76-96.37-145.07-92.59-96.41,6.57-156.95,128.27-184.9,293.14-4.84,28.53-8.69,58.34-11.59,89.08-3.97,41.83-6.14,85.37-6.55,129.67-.37,36.46.45,73.47,2.43,110.47.04,1.1.11,2.2.17,3.28.42,7.78.9,15.58,1.43,23.36.54,7.78,1.12,15.55,1.75,23.34.1,1.11.18,2.23.29,3.32,1.95,23.63,4.37,47.19,7.28,70.53,1.61,13.16,3.39,26.23,5.31,39.21,2.6,17.62,5.43,35.08,8.55,52.3,9.3-4,18.65-8.15,28.04-12.45,18.47-8.46,37.09-17.48,55.75-27,19.92-10.15,39.89-20.89,59.81-32.15,32.72-18.45,65.27-38.26,97.21-59.13,6.54-4.27,13.05-8.58,19.53-12.93,6.48-4.36,12.93-8.76,19.35-13.2,1.19-.83,2.4-1.66,3.58-2.5,26.82-18.62,53.07-37.94,78.47-57.76-1.18-.72-2.4-1.43-3.59-2.14-26.55-15.72-53.86-30.85-81.64-45.29-5.05-2.64-10.13-5.24-15.22-7.82-.99-.51-1.97-1-2.95-1.51-6.95-3.54-13.96-7.02-20.96-10.45-7-3.43-14.04-6.82-21.09-10.15-.98-.46-1.98-.95-2.98-1.4-33.51-15.81-67.47-30.54-101.37-43.98-16.43-6.53-32.84-12.7-49.2-18.59.36-11.79.85-23.48,1.48-35,.71-12.87,1.59-25.6,2.62-38.1,2.6-31.36,6.26-61.49,10.92-90.07,4.5-27.71,9.98-53.93,16.38-78.42,21.22-81.05,49.31-126.98,72.38-142.48,5.46-3.67,10.62-5.63,15.36-5.96,16.66-1.14,41.46,17.09,67.95,58.3,12.91,20.03,26.19,45.52,39.16,76.86.42,1.01.82,2.01,1.22,3.03,4.55,11.09,8.93,22.58,13.14,34.47,4.35,12.25,8.53,24.91,12.53,37.95,8.51,27.7,16.21,57.07,23.06,87.77,28.45-13.45,56.38-25.35,83.45-35.61,26.24-9.93,51.71-18.3,76.11-24.99,99.89-27.39,158.57-18.83,172.41,1.76,13.85,20.61-.39,78.18-63.48,160.32-15.4,20.07-32.79,40.47-51.91,61.03-34.24-24.34-70.86-47.99-109.02-70.5-31.39-18.57-63.82-36.34-96.85-53.11-.99-.51-1.97-1-2.95-1.51-6.95-3.54-13.96-7.02-20.96-10.45-7-3.43-14.04-6.82-21.09-10.15-.98-.46-1.98-.95-2.98-1.4-33.51-15.81-67.47-30.54-101.37-43.98-28.18-11.2-56.36-21.49-84.23-30.77-4.07,25.89-7.31,53.17-9.63,81.2-.26,3.17-.51,6.37-.75,9.57,33.23,11.54,67.16,24.74,101.4,39.4,26.31,11.26,52.82,23.42,79.3,36.4,18.52,9.07,36.75,18.39,54.56,27.94h.02c7.69,4.09,15.29,8.24,22.83,12.41,20.46,11.36,40.4,22.97,59.69,34.79,12.21,7.48,24.16,15.05,35.85,22.68,10.8,7.03,21.37,14.13,31.69,21.29-9.23,8.5-18.75,16.98-28.49,25.42-27.19,23.61-56.28,47.01-86.88,69.9-22.91,17.17-46.69,34.03-71.19,50.5-24.5,16.47-49.1,32.11-73.65,46.84-32.75,19.69-65.41,37.78-97.54,54.04-11.49,5.83-22.93,11.44-34.3,16.78-28.43,13.44-56.36,25.34-83.44,35.59-26.24,9.93-51.71,18.3-76.1,25-99.89,27.39-158.58,18.85-172.44-1.77-13.84-20.6.41-78.17,63.51-160.31,15.4-20.07,32.78-40.49,51.88-61.03,5.33-5.71,10.79-11.44,16.37-17.18,2.18-2.23,4.37-4.47,6.6-6.71,1.84-1.86,3.69-3.73,5.56-5.58,1.71-1.7,3.41-3.4,5.13-5.08,2.34-2.32,4.7-4.62,7.1-6.93,4.77-4.62,9.61-9.24,14.56-13.85,3.03-2.83,6.09-5.65,9.17-8.48-3.44-2.38-6.85-4.78-10.23-7.18-3.2-2.27-6.39-4.56-9.55-6.84-2.9-2.1-5.76-4.19-8.6-6.28-2.19-1.62-4.35-3.2-6.5-4.83-1.62-1.21-3.25-2.41-4.83-3.62-1.67-1.24-3.33-2.5-4.97-3.77-1.72-1.31-3.44-2.62-5.11-3.94-.19-.14-.38-.27-.54-.41-2.48-1.9-4.93-3.82-7.36-5.75-5.03-3.97-10-7.93-14.84-11.9-21.73-17.76-41.72-35.61-59.7-53.4-73.66-72.82-95.61-127.91-84.7-150.21,10.93-22.31,67.91-38.72,170.59-25.17,12.91,1.72,26.14,3.81,39.68,6.32,2.93-30.33,6.83-59.79,11.54-87.59.08-.41.13-.83.22-1.25-110.36-20.03-204.7-16.26-260.91,21.52-17.91,12.04-31.95,27.55-41.4,46.83-42.5,86.78,32.62,200.05,161.42,306.69-113.13,123.14-172.17,245.57-118.27,325.78,53.9,80.21,189.58,71.8,346.31,13.55,27.13-10.07,54.88-21.63,82.94-34.48,38.2-17.49,76.98-37.37,115.55-59.15,32.72-18.45,65.27-38.26,97.21-59.13,6.54-4.27,13.05-8.58,19.53-12.93,6.48-4.36,12.93-8.76,19.35-13.2,31.38-21.69,62.03-44.34,91.47-67.67,34.74-27.49,67.81-55.89,98.44-84.66,21.73,17.76,41.72,35.61,59.7,53.4,73.66,72.82,95.61,127.91,84.68,150.22-10.93,22.28-67.91,38.72-170.59,25.17-12.9-1.7-26.12-3.82-39.65-6.32-12.78-2.38-25.86-5.07-39.14-8.12-3.06-.7-6.12-1.42-9.21-2.16-.48-.11-.96-.22-1.42-.34-2.63-.63-5.25-1.29-7.86-1.94-2.75-.67-5.52-1.37-8.27-2.08-3.6-.93-7.22-1.87-10.85-2.86-3.03-.81-6.09-1.65-9.15-2.5-2.31-.63-4.62-1.28-6.91-1.94-11.18-3.17-22.47-6.54-33.87-10.11-2.62,31.37-6.26,61.49-10.92,90.07-4.5,27.71-9.98,53.93-16.38,78.42-26.24,100.19-62.97,146.73-87.74,148.44-24.77,1.68-67.49-39.45-107.09-135.16-4.97-12.03-9.76-24.53-14.36-37.51-27.79,12.64-55.26,23.99-81.64,33.78-.4.15-.8.3-1.19.44,49.93,139.23,121.74,233.68,210.37,227.64,21.44-1.48,41.08-8.62,59-20.67,62.71-42.14,104.17-144.26,125.89-272.49,13.18,2.94,26.18,5.58,38.95,7.88,110.36,20.03,204.7,16.26,260.91-21.52,17.92-12.05,31.96-27.53,41.41-46.81,42.5-86.78-32.6-200.06-161.42-306.69ZM899.79,964.76c24.7,10.57,49.57,21.93,74.44,34.04-18.78,12.31-37.6,24.12-56.39,35.38-21.93,13.18-43.83,25.65-65.54,37.32-2.1-20.11-3.85-40.5-5.26-61.07-1.57-23.05-2.66-45.89-3.3-68.45,18.55,7.14,37.25,14.73,56.05,22.78Z"/>
</svg>