<?xml version="1.0" encoding="UTF-8"?>
<svg id="Layer_1" xmlns="http://www.w3.org/2000/svg" version="1.1" viewBox="0 0 2000 1325.38">
  <!-- Generator: Adobe Illustrator 30.0.0, SVG Export Plug-In . SVG Version: 2.1.1 Build 123)  -->
  <defs>
    <style>
      .st0 {
        fill: #0d0d0d;
      }

      .st1 {
        fill: #fa7315;
      }
    </style>
  </defs>
  <g>
    <path class="st0" d="M412.85,902.03c-7.41,0-13.97-1.32-19.66-3.96-5.7-2.64-10.17-6.46-13.41-11.46-3.24-5-4.86-11.12-4.86-18.34v-3.61h16.54v3.61c0,6.39,1.95,11.17,5.84,14.31,3.89,3.15,9.08,4.72,15.56,4.72s11.53-1.34,14.87-4.03c3.34-2.69,5-6.16,5-10.42,0-2.87-.79-5.21-2.36-7.02-1.58-1.81-3.87-3.27-6.88-4.38-3.01-1.11-6.65-2.18-10.91-3.2l-4.17-.83c-6.39-1.48-11.93-3.36-16.61-5.63-4.68-2.27-8.27-5.21-10.77-8.82-2.5-3.61-3.75-8.34-3.75-14.17s1.39-10.84,4.17-15.01c2.78-4.17,6.72-7.37,11.81-9.59,5.09-2.22,11.07-3.34,17.93-3.34s12.97,1.16,18.34,3.47c5.37,2.32,9.61,5.79,12.72,10.42,3.1,4.63,4.66,10.42,4.66,17.37v4.59h-16.54v-4.59c0-3.98-.79-7.18-2.36-9.59-1.58-2.41-3.8-4.17-6.67-5.28-2.87-1.11-6.25-1.67-10.14-1.67-5.75,0-10.1,1.11-13.06,3.34-2.97,2.22-4.45,5.37-4.45,9.45,0,2.59.67,4.79,2.01,6.6,1.34,1.81,3.34,3.29,5.98,4.45,2.64,1.16,5.95,2.15,9.94,2.99l4.17.97c6.67,1.48,12.51,3.36,17.51,5.63,5,2.27,8.92,5.26,11.74,8.96,2.83,3.71,4.24,8.52,4.24,14.45s-1.51,10.98-4.52,15.42c-3.01,4.45-7.23,7.92-12.65,10.42-5.42,2.5-11.84,3.75-19.25,3.75Z"/>
    <path class="st0" d="M469.24,927.88v-13.9h37.94c2.59,0,3.89-1.39,3.89-4.17v-19.18h-2.36c-.74,1.67-1.95,3.31-3.61,4.93-1.67,1.62-3.89,2.97-6.67,4.03s-6.3,1.6-10.56,1.6c-5.28,0-9.96-1.18-14.04-3.54-4.08-2.36-7.23-5.7-9.45-10.01-2.22-4.31-3.34-9.33-3.34-15.08v-41.13h15.84v39.88c0,5.56,1.37,9.68,4.1,12.37,2.73,2.69,6.6,4.03,11.6,4.03,5.65,0,10.12-1.85,13.41-5.56,3.29-3.7,4.93-9.03,4.93-15.98v-34.74h15.84v81.71c0,4.54-1.3,8.13-3.89,10.77-2.59,2.64-6.11,3.96-10.56,3.96h-43.08Z"/>
    <path class="st0" d="M544.09,900.09v-68.65h15.7v9.59h2.36c1.2-2.59,3.38-5.05,6.53-7.37,3.15-2.31,7.92-3.47,14.31-3.47,5.28,0,9.96,1.2,14.04,3.61,4.08,2.41,7.25,5.75,9.52,10.01,2.27,4.26,3.4,9.31,3.4,15.15v41.13h-15.98v-39.88c0-5.56-1.37-9.7-4.1-12.44-2.73-2.73-6.6-4.1-11.6-4.1-5.65,0-10.1,1.88-13.34,5.63-3.24,3.75-4.86,9.1-4.86,16.05v34.74h-15.98Z"/>
    <path class="st0" d="M652.15,900.09c-4.45,0-7.99-1.32-10.63-3.96-2.64-2.64-3.96-6.23-3.96-10.77v-40.72h-17.93v-13.2h17.93v-22.1h15.98v22.1h19.73v13.2h-19.73v38.08c0,2.78,1.3,4.17,3.89,4.17h13.76v13.2h-19.04Z"/>
    <path class="st0" d="M685.39,900.09v-97.28h15.98v37.66h2.36c.74-1.57,1.95-3.15,3.61-4.72,1.67-1.57,3.87-2.87,6.6-3.89,2.73-1.02,6.18-1.53,10.35-1.53,5.28,0,9.96,1.18,14.04,3.54,4.08,2.36,7.25,5.68,9.52,9.94,2.27,4.26,3.4,9.31,3.4,15.15v41.13h-15.98v-39.88c0-5.56-1.37-9.7-4.1-12.44-2.73-2.73-6.6-4.1-11.6-4.1-5.65,0-10.1,1.88-13.34,5.63-3.24,3.75-4.86,9.1-4.86,16.05v34.74h-15.98Z"/>
    <path class="st0" d="M799.53,902.03c-6.86,0-12.9-1.46-18.14-4.38-5.24-2.92-9.31-7.04-12.23-12.37-2.92-5.33-4.38-11.56-4.38-18.69v-1.67c0-7.23,1.44-13.48,4.31-18.76,2.87-5.28,6.9-9.38,12.09-12.3,5.19-2.92,11.16-4.38,17.93-4.38s12.51,1.46,17.51,4.38,8.89,7.02,11.67,12.3c2.78,5.28,4.17,11.44,4.17,18.48v5.7h-51.56c.18,5.37,2.08,9.68,5.7,12.92,3.61,3.24,8.06,4.86,13.34,4.86s9.03-1.13,11.53-3.4c2.5-2.27,4.4-4.84,5.7-7.71l13.2,6.81c-1.3,2.5-3.17,5.17-5.63,7.99-2.46,2.83-5.72,5.24-9.8,7.23-4.08,1.99-9.22,2.99-15.42,2.99ZM781.05,858.26h35.16c-.37-4.54-2.11-8.15-5.21-10.84-3.11-2.69-7.11-4.03-12.02-4.03s-9.17,1.34-12.23,4.03c-3.06,2.69-4.96,6.3-5.7,10.84Z"/>
    <path class="st0" d="M872.31,900.09c-4.45,0-7.99-1.32-10.63-3.96s-3.96-6.23-3.96-10.77v-40.72h-17.93v-13.2h17.93v-22.1h15.98v22.1h19.73v13.2h-19.73v38.08c0,2.78,1.3,4.17,3.89,4.17h13.76v13.2h-19.04Z"/>
    <path class="st0" d="M913.48,822.68c-2.87,0-5.35-.95-7.43-2.85-2.09-1.9-3.13-4.42-3.13-7.57s1.04-5.67,3.13-7.57c2.08-1.9,4.56-2.85,7.43-2.85,3.06,0,5.58.95,7.57,2.85,1.99,1.9,2.99,4.43,2.99,7.57s-1,5.68-2.99,7.57c-1.99,1.9-4.52,2.85-7.57,2.85ZM905.56,900.09v-68.65h15.98v68.65h-15.98Z"/>
    <path class="st0" d="M970.79,902.03c-6.67,0-12.69-1.39-18.07-4.17-5.37-2.78-9.61-6.81-12.72-12.09-3.11-5.28-4.66-11.63-4.66-19.04v-1.95c0-7.41,1.55-13.76,4.66-19.04,3.1-5.28,7.34-9.31,12.72-12.09,5.37-2.78,11.4-4.17,18.07-4.17s12.21,1.16,16.88,3.47c4.68,2.32,8.45,5.49,11.33,9.52,2.87,4.03,4.72,8.55,5.56,13.55l-15.43,3.2c-.37-2.87-1.25-5.49-2.64-7.85-1.39-2.36-3.36-4.24-5.91-5.63-2.55-1.39-5.68-2.08-9.38-2.08s-7.2.81-10.21,2.43c-3.01,1.62-5.37,4.05-7.09,7.3-1.72,3.24-2.57,7.13-2.57,11.67v1.39c0,4.54.86,8.41,2.57,11.6,1.71,3.2,4.08,5.63,7.09,7.3,3.01,1.67,6.41,2.5,10.21,2.5,5.65,0,9.94-1.46,12.85-4.38,2.92-2.92,4.75-6.69,5.49-11.33l15.42,3.61c-1.11,4.82-3.1,9.22-5.98,13.2-2.87,3.98-6.65,7.16-11.33,9.52-4.68,2.36-10.31,3.54-16.88,3.54Z"/>
    <path class="st0" d="M1088.91,902.03c-7.41,0-13.97-1.32-19.66-3.96-5.7-2.64-10.17-6.46-13.41-11.46-3.24-5-4.86-11.12-4.86-18.34v-3.61h16.54v3.61c0,6.39,1.95,11.17,5.84,14.31,3.89,3.15,9.08,4.72,15.56,4.72s11.53-1.34,14.87-4.03c3.34-2.69,5-6.16,5-10.42,0-2.87-.79-5.21-2.36-7.02-1.58-1.81-3.87-3.27-6.88-4.38-3.01-1.11-6.65-2.18-10.91-3.2l-4.17-.83c-6.39-1.48-11.93-3.36-16.61-5.63-4.68-2.27-8.27-5.21-10.77-8.82-2.5-3.61-3.75-8.34-3.75-14.17s1.39-10.84,4.17-15.01c2.78-4.17,6.72-7.37,11.81-9.59,5.09-2.22,11.07-3.34,17.93-3.34s12.97,1.16,18.34,3.47c5.37,2.32,9.61,5.79,12.72,10.42,3.1,4.63,4.66,10.42,4.66,17.37v4.59h-16.54v-4.59c0-3.98-.79-7.18-2.36-9.59-1.58-2.41-3.8-4.17-6.67-5.28-2.87-1.11-6.25-1.67-10.14-1.67-5.75,0-10.1,1.11-13.06,3.34-2.97,2.22-4.45,5.37-4.45,9.45,0,2.59.67,4.79,2.01,6.6,1.34,1.81,3.34,3.29,5.98,4.45,2.64,1.16,5.95,2.15,9.94,2.99l4.17.97c6.67,1.48,12.51,3.36,17.51,5.63,5,2.27,8.92,5.26,11.74,8.96,2.83,3.71,4.24,8.52,4.24,14.45s-1.51,10.98-4.52,15.42c-3.01,4.45-7.23,7.92-12.65,10.42-5.42,2.5-11.84,3.75-19.25,3.75Z"/>
    <path class="st0" d="M1170.97,902.03c-6.67,0-12.69-1.39-18.07-4.17-5.37-2.78-9.61-6.81-12.72-12.09-3.11-5.28-4.66-11.63-4.66-19.04v-1.95c0-7.41,1.55-13.76,4.66-19.04,3.1-5.28,7.34-9.31,12.72-12.09,5.37-2.78,11.4-4.17,18.07-4.17s12.21,1.16,16.88,3.47c4.68,2.32,8.45,5.49,11.33,9.52,2.87,4.03,4.72,8.55,5.56,13.55l-15.43,3.2c-.37-2.87-1.25-5.49-2.64-7.85-1.39-2.36-3.36-4.24-5.91-5.63-2.55-1.39-5.68-2.08-9.38-2.08s-7.2.81-10.21,2.43c-3.01,1.62-5.37,4.05-7.09,7.3-1.72,3.24-2.57,7.13-2.57,11.67v1.39c0,4.54.86,8.41,2.57,11.6,1.71,3.2,4.08,5.63,7.09,7.3,3.01,1.67,6.41,2.5,10.21,2.5,5.65,0,9.94-1.46,12.85-4.38s4.75-6.69,5.49-11.33l15.42,3.61c-1.11,4.82-3.1,9.22-5.98,13.2-2.87,3.98-6.65,7.16-11.33,9.52-4.68,2.36-10.31,3.54-16.88,3.54Z"/>
    <path class="st0" d="M1225.58,822.68c-2.87,0-5.35-.95-7.43-2.85-2.09-1.9-3.13-4.42-3.13-7.57s1.04-5.67,3.13-7.57c2.08-1.9,4.56-2.85,7.43-2.85,3.06,0,5.58.95,7.57,2.85,1.99,1.9,2.99,4.43,2.99,7.57s-1,5.68-2.99,7.57c-1.99,1.9-4.52,2.85-7.57,2.85ZM1217.66,900.09v-68.65h15.98v68.65h-15.98Z"/>
    <path class="st0" d="M1282.19,902.03c-6.86,0-12.9-1.46-18.14-4.38-5.24-2.92-9.31-7.04-12.23-12.37-2.92-5.33-4.38-11.56-4.38-18.69v-1.67c0-7.23,1.44-13.48,4.31-18.76,2.87-5.28,6.9-9.38,12.09-12.3,5.19-2.92,11.16-4.38,17.93-4.38s12.51,1.46,17.51,4.38,8.89,7.02,11.67,12.3c2.78,5.28,4.17,11.44,4.17,18.48v5.7h-51.56c.18,5.37,2.08,9.68,5.7,12.92,3.61,3.24,8.06,4.86,13.34,4.86s9.03-1.13,11.53-3.4c2.5-2.27,4.4-4.84,5.7-7.71l13.2,6.81c-1.3,2.5-3.17,5.17-5.63,7.99-2.46,2.83-5.72,5.24-9.8,7.23-4.08,1.99-9.22,2.99-15.42,2.99ZM1263.71,858.26h35.16c-.37-4.54-2.11-8.15-5.21-10.84-3.11-2.69-7.11-4.03-12.02-4.03s-9.17,1.34-12.23,4.03c-3.06,2.69-4.96,6.3-5.7,10.84Z"/>
    <path class="st0" d="M1328.88,900.09v-68.65h15.7v9.59h2.36c1.2-2.59,3.38-5.05,6.53-7.37,3.15-2.31,7.92-3.47,14.31-3.47,5.28,0,9.96,1.2,14.04,3.61,4.08,2.41,7.25,5.75,9.52,10.01,2.27,4.26,3.4,9.31,3.4,15.15v41.13h-15.98v-39.88c0-5.56-1.37-9.7-4.1-12.44-2.73-2.73-6.6-4.1-11.6-4.1-5.65,0-10.1,1.88-13.34,5.63-3.24,3.75-4.86,9.1-4.86,16.05v34.74h-15.98Z"/>
    <path class="st0" d="M1443.47,902.03c-6.67,0-12.69-1.39-18.07-4.17-5.37-2.78-9.61-6.81-12.72-12.09-3.11-5.28-4.66-11.63-4.66-19.04v-1.95c0-7.41,1.55-13.76,4.66-19.04,3.1-5.28,7.34-9.31,12.72-12.09,5.37-2.78,11.4-4.17,18.07-4.17s12.21,1.16,16.88,3.47c4.68,2.32,8.45,5.49,11.33,9.52,2.87,4.03,4.72,8.55,5.56,13.55l-15.43,3.2c-.37-2.87-1.25-5.49-2.64-7.85-1.39-2.36-3.36-4.24-5.91-5.63-2.55-1.39-5.68-2.08-9.38-2.08s-7.2.81-10.21,2.43c-3.01,1.62-5.37,4.05-7.09,7.3-1.72,3.24-2.57,7.13-2.57,11.67v1.39c0,4.54.86,8.41,2.57,11.6,1.71,3.2,4.08,5.63,7.09,7.3,3.01,1.67,6.41,2.5,10.21,2.5,5.65,0,9.94-1.46,12.85-4.38,2.92-2.92,4.75-6.69,5.49-11.33l15.42,3.61c-1.11,4.82-3.1,9.22-5.98,13.2-2.87,3.98-6.65,7.16-11.33,9.52-4.68,2.36-10.31,3.54-16.88,3.54Z"/>
    <path class="st0" d="M1522.41,902.03c-6.86,0-12.9-1.46-18.14-4.38-5.24-2.92-9.31-7.04-12.23-12.37-2.92-5.33-4.38-11.56-4.38-18.69v-1.67c0-7.23,1.44-13.48,4.31-18.76,2.87-5.28,6.9-9.38,12.09-12.3,5.19-2.92,11.16-4.38,17.93-4.38s12.51,1.46,17.51,4.38,8.89,7.02,11.67,12.3c2.78,5.28,4.17,11.44,4.17,18.48v5.7h-51.56c.18,5.37,2.08,9.68,5.7,12.92,3.61,3.24,8.06,4.86,13.34,4.86s9.03-1.13,11.53-3.4c2.5-2.27,4.4-4.84,5.7-7.71l13.2,6.81c-1.3,2.5-3.17,5.17-5.63,7.99-2.46,2.83-5.72,5.24-9.8,7.23-4.08,1.99-9.22,2.99-15.42,2.99ZM1503.92,858.26h35.16c-.37-4.54-2.11-8.15-5.21-10.84-3.11-2.69-7.11-4.03-12.02-4.03s-9.17,1.34-12.23,4.03c-3.06,2.69-4.96,6.3-5.7,10.84Z"/>
    <path class="st0" d="M1596.6,902.03c-8.89,0-16.21-1.95-21.96-5.84-5.75-3.89-9.22-9.59-10.42-17.09l14.73-3.75c.65,3.52,1.81,6.3,3.47,8.34,1.67,2.04,3.73,3.47,6.18,4.31,2.45.83,5.12,1.25,7.99,1.25,4.35,0,7.62-.79,9.8-2.36,2.18-1.57,3.27-3.57,3.27-5.98s-1.04-4.35-3.13-5.56c-2.08-1.2-5.26-2.22-9.52-3.06l-4.31-.7c-4.72-.92-9.03-2.2-12.92-3.82-3.89-1.62-7.02-3.84-9.38-6.67-2.36-2.83-3.54-6.41-3.54-10.77,0-6.67,2.48-11.81,7.44-15.42,4.95-3.61,11.46-5.42,19.52-5.42s14.04,1.72,19.04,5.14c5,3.43,8.24,8.01,9.73,13.76l-14.73,4.45c-.74-3.89-2.36-6.65-4.86-8.27-2.5-1.62-5.56-2.43-9.17-2.43s-6.56.65-8.55,1.95c-1.99,1.3-2.99,3.15-2.99,5.56s1.02,4.22,3.06,5.42c2.04,1.21,4.77,2.09,8.2,2.64l4.31.83c5.09.93,9.7,2.13,13.83,3.61,4.12,1.48,7.39,3.61,9.8,6.39,2.41,2.78,3.61,6.53,3.61,11.26,0,7.14-2.57,12.62-7.71,16.47-5.14,3.84-12.07,5.77-20.78,5.77Z"/>
  </g>
  <path class="st1" d="M1121.22,577.27c33.62-36.6,51.16-72.98,35.14-96.82-16.02-23.84-56.33-21.34-102.92-4.03-1.2-3.83-2.45-7.56-3.76-11.2-1.15-3.21-2.34-6.34-3.57-9.37-3.58-8.87-7.48-16.98-11.69-24.16-1.35-2.29-2.73-4.5-4.14-6.59-12.18-18.12-26.67-28.64-43.11-27.52-28.65,1.95-46.64,38.12-54.95,87.11-1.44,8.48-2.58,17.34-3.44,26.47-1.18,12.43-1.82,25.37-1.95,38.53-.11,10.84.13,21.83.72,32.83.01.33.03.65.05.98.12,2.31.27,4.63.43,6.94.16,2.31.33,4.62.52,6.93.03.33.05.66.09.99.58,7.02,1.3,14.02,2.16,20.96.48,3.91,1.01,7.8,1.58,11.65.77,5.24,1.61,10.43,2.54,15.54,2.76-1.19,5.54-2.42,8.33-3.7,5.49-2.51,11.02-5.19,16.57-8.02,5.92-3.02,11.85-6.21,17.77-9.55,9.72-5.48,19.4-11.37,28.89-17.57,1.94-1.27,3.88-2.55,5.8-3.84,1.93-1.29,3.84-2.6,5.75-3.92.35-.25.71-.49,1.06-.74,7.97-5.53,15.77-11.27,23.32-17.17-.35-.21-.71-.42-1.07-.63-7.89-4.67-16.01-9.17-24.26-13.46-1.5-.78-3.01-1.56-4.52-2.32-.29-.15-.58-.3-.88-.45-2.07-1.05-4.15-2.09-6.23-3.11-2.08-1.02-4.17-2.03-6.27-3.02-.29-.14-.59-.28-.88-.42-9.96-4.7-20.05-9.08-30.12-13.07-4.88-1.94-9.76-3.78-14.62-5.53.11-3.5.25-6.98.44-10.4.21-3.83.47-7.61.78-11.32.77-9.32,1.86-18.27,3.25-26.77,1.34-8.23,2.96-16.03,4.87-23.3,6.31-24.09,14.66-37.73,21.51-42.34,1.62-1.09,3.16-1.67,4.56-1.77,4.95-.34,12.32,5.08,20.19,17.32,3.84,5.95,7.78,13.53,11.64,22.84.12.3.24.6.36.9,1.35,3.29,2.65,6.71,3.9,10.24,1.29,3.64,2.53,7.4,3.72,11.28,2.53,8.23,4.82,16.96,6.85,26.08,8.45-4,16.76-7.53,24.8-10.58,7.8-2.95,15.37-5.44,22.62-7.43,29.68-8.14,47.12-5.6,51.24.52,4.12,6.13-.12,23.23-18.87,47.64-4.58,5.96-9.74,12.03-15.43,18.14-10.17-7.23-21.06-14.26-32.4-20.95-9.33-5.52-18.97-10.8-28.78-15.78-.29-.15-.58-.3-.88-.45-2.07-1.05-4.15-2.09-6.23-3.11-2.08-1.02-4.17-2.03-6.27-3.02-.29-.14-.59-.28-.88-.42-9.96-4.7-20.05-9.08-30.12-13.07-8.38-3.33-16.75-6.39-25.03-9.14-1.21,7.69-2.17,15.8-2.86,24.13-.08.94-.15,1.89-.22,2.85,9.87,3.43,19.96,7.35,30.14,11.71,7.82,3.35,15.7,6.96,23.57,10.82,5.5,2.7,10.92,5.46,16.21,8.3h0c2.28,1.21,4.54,2.45,6.79,3.69,6.08,3.38,12.01,6.83,17.74,10.34,3.63,2.22,7.18,4.47,10.65,6.74,3.21,2.09,6.35,4.2,9.42,6.33-2.74,2.53-5.57,5.05-8.47,7.55-8.08,7.02-16.72,13.97-25.82,20.77-6.81,5.1-13.88,10.11-21.16,15.01-7.28,4.89-14.59,9.54-21.89,13.92-9.73,5.85-19.44,11.23-28.99,16.06-3.42,1.73-6.81,3.4-10.19,4.99-8.45,3.99-16.75,7.53-24.8,10.58-7.8,2.95-15.37,5.44-22.61,7.43-29.68,8.14-47.13,5.6-51.24-.53-4.11-6.12.12-23.23,18.87-47.64,4.58-5.96,9.74-12.03,15.42-18.14,1.58-1.7,3.21-3.4,4.86-5.1.65-.66,1.3-1.33,1.96-1.99.55-.55,1.1-1.11,1.65-1.66.51-.5,1.01-1.01,1.53-1.51.7-.69,1.4-1.37,2.11-2.06,1.42-1.37,2.86-2.75,4.33-4.12.9-.84,1.81-1.68,2.72-2.52-1.02-.71-2.04-1.42-3.04-2.13-.95-.68-1.9-1.36-2.84-2.03-.86-.62-1.71-1.25-2.56-1.87-.65-.48-1.29-.95-1.93-1.43-.48-.36-.97-.72-1.44-1.08-.5-.37-.99-.74-1.48-1.12-.51-.39-1.02-.78-1.52-1.17-.06-.04-.11-.08-.16-.12-.74-.57-1.47-1.13-2.19-1.71-1.5-1.18-2.97-2.36-4.41-3.54-6.46-5.28-12.4-10.58-17.74-15.87-21.89-21.64-28.41-38.01-25.17-44.64,3.25-6.63,20.18-11.51,50.7-7.48,3.84.51,7.77,1.13,11.79,1.88.87-9.01,2.03-17.77,3.43-26.03.02-.12.04-.25.06-.37-32.8-5.95-60.83-4.83-77.54,6.4-5.32,3.58-9.49,8.19-12.3,13.92-12.63,25.79,9.69,59.45,47.97,91.14-33.62,36.59-51.17,72.98-35.15,96.81s56.34,21.34,102.92,4.03c8.06-2.99,16.31-6.43,24.65-10.25,11.35-5.2,22.88-11.11,34.34-17.58,9.72-5.48,19.4-11.37,28.89-17.57,1.94-1.27,3.88-2.55,5.8-3.84,1.93-1.29,3.84-2.6,5.75-3.92,9.33-6.45,18.43-13.18,27.18-20.11,10.32-8.17,20.15-16.61,29.25-25.16,6.46,5.28,12.4,10.58,17.74,15.87,21.89,21.64,28.41,38.01,25.16,44.64-3.25,6.62-20.18,11.51-50.7,7.48-3.83-.5-7.76-1.14-11.78-1.88-3.8-.71-7.69-1.51-11.63-2.41-.91-.21-1.82-.42-2.74-.64-.14-.03-.29-.06-.42-.1-.78-.19-1.56-.38-2.34-.58-.82-.2-1.64-.41-2.46-.62-1.07-.28-2.15-.56-3.22-.85-.9-.24-1.81-.49-2.72-.74-.69-.19-1.37-.38-2.05-.58-3.32-.94-6.68-1.94-10.06-3-.78,9.32-1.86,18.27-3.25,26.77-1.34,8.23-2.97,16.03-4.87,23.3-7.8,29.78-18.71,43.61-26.07,44.11-7.36.5-20.06-11.72-31.82-40.17-1.48-3.57-2.9-7.29-4.27-11.15-8.26,3.76-16.42,7.13-24.26,10.04-.12.04-.24.09-.35.13,14.84,41.38,36.18,69.45,62.52,67.65,6.37-.44,12.21-2.56,17.53-6.14,18.64-12.52,30.96-42.87,37.41-80.98,3.92.87,7.78,1.66,11.58,2.34,32.8,5.95,60.83,4.83,77.54-6.4,5.33-3.58,9.5-8.18,12.31-13.91,12.63-25.79-9.69-59.46-47.97-91.14ZM970.22,575.07c7.34,3.14,14.73,6.52,22.12,10.12-5.58,3.66-11.17,7.17-16.76,10.51-6.52,3.92-13.02,7.62-19.48,11.09-.62-5.98-1.15-12.04-1.56-18.15-.47-6.85-.79-13.64-.98-20.34,5.51,2.12,11.07,4.38,16.66,6.77Z"/>
</svg>